# xmcd
#
# Track frame offsets: 
#        150
#        19201
#        32371
#        43885
#        56641
#        69802
#        81522
#        92032
#        103138
#        119413
#        137633
#        147081
#        158737
#        176839
#        202281
#        220046
#        229545
#        242284
#        256415
#        266827
#
# Disc length: 3727 seconds
#
# Revision: 0
# Processed by: cddbd v1.5.2PL0 Copyright (c) Steve Scherf et al.
# Submitted via: ExactAudioCopy v0.95b4
#
DISCID=1e0e8d14
DTITLE=Wojciech Korda - Wojciech Korda - Sukces To Przetrwanie
DYEAR=2006
DGENRE=Beat
TTITLE0=Na Betonie Kwiaty Nie Rosna
TTITLE1=Niedziela Bedzie Dla Nas
TTITLE2=Czy Bedziesz Sama Dzis Wieczorem
TTITLE3=Zostalo Mi Po Tobie
TTITLE4=Mamy Dla Was Kwiaty
TTITLE5=Labiryntu Mrok
TTITLE6=Hej Tam W Dolinie
TTITLE7=Smutny List
TTITLE8=Narodzil Sie Nam Nowy Bog
TTITLE9=Nie Mow Jej
TTITLE10=Ziemi Puls
TTITLE11=Wyspa Slepych Ptaków
TTITLE12=Pod Naszym Niebem
TTITLE13=O Nagiej Prawdzie Sluchaj Piesni
TTITLE14=Tancz Wolna Wyspo
TTITLE15=Czym Bylby Swiat Bez Ciebie
TTITLE16=Raz Ja Spotkalem
TTITLE17=Podobni Do Mew
TTITLE18=Skonczyly Sie Wakacje
TTITLE19=Naga
EXTD=
EXTT0=
EXTT1=
EXTT2=
EXTT3=
EXTT4=
EXTT5=
EXTT6=
EXTT7=
EXTT8=
EXTT9=
EXTT10=
EXTT11=
EXTT12=
EXTT13=
EXTT14=
EXTT15=
EXTT16=
EXTT17=
EXTT18=
EXTT19=
PLAYORDER=
